<?xml version="1.0" encoding="utf-8"?>
<!-- Generator: Adobe Illustrator 14.0.0, SVG Export Plug-In . SVG Version: 6.00 Build 43363)  -->
<!DOCTYPE svg PUBLIC "-//W3C//DTD SVG 1.1//EN" "http://www.w3.org/Graphics/SVG/1.1/DTD/svg11.dtd">
<svg version="1.1" id="Layer_2" xmlns="http://www.w3.org/2000/svg" xmlns:xlink="http://www.w3.org/1999/xlink" x="0px" y="0px"
	 width="512px" height="512px" viewBox="0 0 512 512" enable-background="new 0 0 512 512" xml:space="preserve">
<linearGradient id="SVGID_1_" gradientUnits="userSpaceOnUse" x1="449.2129" y1="50.1455" x2="447.6039" y2="61.569">
	<stop  offset="0" style="stop-color:#EBEBEB"/>
	<stop  offset="0.1191" style="stop-color:#E5E5E5"/>
	<stop  offset="0.2741" style="stop-color:#D5D5D5"/>
	<stop  offset="0.4489" style="stop-color:#BABABA"/>
	<stop  offset="0.6383" style="stop-color:#949494"/>
	<stop  offset="0.837" style="stop-color:#656565"/>
	<stop  offset="1" style="stop-color:#383838"/>
</linearGradient>
<path fill="url(#SVGID_1_)" stroke="#000000" stroke-width="3" d="M439.828,39.005c-3.136,1.362-9.055,6.587-9.333,9.994
	c-0.245,2.995,4.414,8.011,6.667,10c3.353,2.96,16,8.005,16,8.005c2.809-1.454,12,4.001,12,4.001s-4.553-17.865-6.354-22.434
	c-1.354-3.434-5.646-9.566-5.646-9.566S442.886,37.677,439.828,39.005z"/>
<g>
	<radialGradient id="SVGID_2_" cx="423.6914" cy="49.6655" r="343.1208" gradientUnits="userSpaceOnUse">
		<stop  offset="0" style="stop-color:#616161"/>
		<stop  offset="0.1025" style="stop-color:#656565"/>
		<stop  offset="0.1656" style="stop-color:#6B6B6B"/>
		<stop  offset="0.2638" style="stop-color:#67A9A4"/>
		<stop  offset="0.3436" style="stop-color:#B39EB3"/>
		<stop  offset="0.3681" style="stop-color:#B8B8B8"/>
		<stop  offset="1" style="stop-color:#CBCBCB"/>
	</radialGradient>
	<path fill="url(#SVGID_2_)" d="M425,194.005c0,0-2.193,19.278-5,25c-2.429,4.951-14.457,16.66-14.457,16.66
		s-5.536,17.795-7.543,23.672c-4.667,13.668-17.505,17.721-17.505,17.721s-6.388,10.406-9.495,12.947c-5.543,4.529-26,12-26,12
		s-15.366,19.465-23,21c-3.644,0.732-13.668-2.668-13.668-2.668s-15.293,9.84-21.332,11.668c-5.503,1.666-23,0-23,0
		s-54.059,21.029-72.333,27.332c-21.915,7.559-88.505,27.668-88.505,27.668s-71.951,73.332-71,76c4.355,12.211,142-64,142-64
		s14.457,4.564,18.694,4.289c8.604-0.557,29.306-13.289,29.306-13.289s52.244,32.699,71.422,30
		c54.51-7.674,160.695-99.379,176.322-152.162c19.094-64.495,7.44-95.61,1.923-126.839c-2.797-15.832-8-38-21.333-60.667
		c-1.724-2.93-0.353-11.771,2.666-13.333c0,0-12.647-5.045-16-8.005c-2.253-1.989-6.912-7.005-6.667-10
		c0.278-3.407,6.197-8.632,9.333-9.994c3.058-1.329,13.334,0,13.334,0s-2.462-20.359-7-25c-4.202-4.297-16.991-7.143-23-7
		c-7.431,0.177-22.49,5.01-28,10c-19.064,17.266-31.741,70.388-44,93c-1.818,3.355-8,13-8,13c0,0-45.162,21.995-45.162,21.995
		s-15.774,8.243-20.586,11.688C272.271,160.372,258.5,173.5,258.5,173.5s-9.645,5.501-17.402,13.089
		c-10.875,10.639-20.936,24.416-20.936,24.416"/>
	<linearGradient id="SVGID_3_" gradientUnits="userSpaceOnUse" x1="294.9336" y1="-52.9233" x2="250.8968" y2="391.748">
		<stop  offset="0.4943" style="stop-color:#B8B8B8;stop-opacity:0"/>
		<stop  offset="0.9405" style="stop-color:#000000;stop-opacity:0.6"/>
	</linearGradient>
	<path fill="url(#SVGID_3_)" d="M425,194.005c0,0-2.193,19.278-5,25c-2.429,4.951-14.457,16.66-14.457,16.66
		s-5.536,17.795-7.543,23.672c-4.667,13.668-17.505,17.721-17.505,17.721s-6.388,10.406-9.495,12.947c-5.543,4.529-26,12-26,12
		s-15.366,19.465-23,21c-3.644,0.732-13.668-2.668-13.668-2.668s-15.293,9.84-21.332,11.668c-5.503,1.666-23,0-23,0
		s-54.059,21.029-72.333,27.332c-21.915,7.559-88.505,27.668-88.505,27.668s-71.951,73.332-71,76c4.355,12.211,142-64,142-64
		s14.457,4.564,18.694,4.289c8.604-0.557,29.306-13.289,29.306-13.289s52.244,32.699,71.422,30
		c54.51-7.674,160.695-99.379,176.322-152.162c19.094-64.495,7.44-95.61,1.923-126.839c-2.797-15.832-8-38-21.333-60.667
		c-1.724-2.93-0.353-11.771,2.666-13.333c0,0-12.647-5.045-16-8.005c-2.253-1.989-6.912-7.005-6.667-10
		c0.278-3.407,6.197-8.632,9.333-9.994c3.058-1.329,13.334,0,13.334,0s-2.462-20.359-7-25c-4.202-4.297-16.991-7.143-23-7
		c-7.431,0.177-22.49,5.01-28,10c-19.064,17.266-31.741,70.388-44,93c-1.818,3.355-8,13-8,13c0,0-45.162,21.995-45.162,21.995
		s-15.774,8.243-20.586,11.688C272.271,160.372,258.5,173.5,258.5,173.5s-9.645,5.501-17.402,13.089
		c-10.875,10.639-20.936,24.416-20.936,24.416"/>
	<path fill="none" stroke="#000000" stroke-width="3" d="M425,194.005c0,0-2.193,19.278-5,25
		c-2.429,4.951-14.457,16.66-14.457,16.66s-5.536,17.795-7.543,23.672c-4.667,13.668-17.505,17.721-17.505,17.721
		s-6.388,10.406-9.495,12.947c-5.543,4.529-26,12-26,12s-15.366,19.465-23,21c-3.644,0.732-13.668-2.668-13.668-2.668
		s-15.293,9.84-21.332,11.668c-5.503,1.666-23,0-23,0s-54.059,21.029-72.333,27.332c-21.915,7.559-88.505,27.668-88.505,27.668
		s-71.951,73.332-71,76c4.355,12.211,142-64,142-64s14.457,4.564,18.694,4.289c8.604-0.557,29.306-13.289,29.306-13.289
		s52.244,32.699,71.422,30c54.51-7.674,160.695-99.379,176.322-152.162c19.094-64.495,7.44-95.61,1.923-126.839
		c-2.797-15.832-8-38-21.333-60.667c-1.724-2.93-0.353-11.771,2.666-13.333c0,0-12.647-5.045-16-8.005
		c-2.253-1.989-6.912-7.005-6.667-10c0.278-3.407,6.197-8.632,9.333-9.994c3.058-1.329,13.334,0,13.334,0s-2.462-20.359-7-25
		c-4.202-4.297-16.991-7.143-23-7c-7.431,0.177-22.49,5.01-28,10c-19.064,17.266-31.741,70.388-44,93c-1.818,3.355-8,13-8,13
		c0,0-45.162,21.995-45.162,21.995s-15.774,8.243-20.586,11.688C272.271,160.372,258.5,173.5,258.5,173.5
		s-9.645,5.501-17.402,13.089c-10.875,10.639-20.936,24.416-20.936,24.416"/>
</g>
<path fill="#4D4D4D" stroke="#000000" stroke-width="3" d="M255.576,326.506l-20.076,2.5l-13.796-6.5l-27.204-8l-33,5l-19.338-9.5
	c0,0-21.108,14.395-26.333,20.998c-2.059,2.602-5.667,12.002-5.667,12.002s-74.333,34-91,48.666
	c-5.824,5.125,24.025,4.373,24.025,4.373s-19.38,13.812-12.025,12.961c12.117-1.402,57-18,57-18l15-4
	c0,0,66.59-20.109,88.505-27.668C209.941,353.035,264,332.006,264,332.006l-8.424-3V326.506z"/>
<linearGradient id="SVGID_4_" gradientUnits="userSpaceOnUse" x1="293.1377" y1="170.3857" x2="289.0592" y2="205.2146">
	<stop  offset="0" style="stop-color:#CCCCCC;stop-opacity:0"/>
	<stop  offset="0.1196" style="stop-color:#C8C8C8;stop-opacity:0.4756"/>
	<stop  offset="0.229" style="stop-color:#BDBDBD;stop-opacity:0.9102"/>
	<stop  offset="0.2515" style="stop-color:#BABABA"/>
</linearGradient>
<path fill="url(#SVGID_4_)" stroke="#000000" stroke-width="3" d="M258.5,173.5c0,0-15.716,11.578-20.374,16.1
	c-5.012,4.867-17.964,21.405-17.964,21.405l-13,18c0,0-25.613,25.984-32.667,35.846c-2.515,3.516-8.333,15.154-8.333,15.154
	s-12.415,10.137-15.667,14.332c-2.718,3.508-8.333,15.668-8.333,15.668l19.338,9.5l33-5l27.204,8l13.796,6.5l20.076-2.5v2.5l8.424,3
	c0,0,17.497,1.666,23,0c6.039-1.828,21.332-11.668,21.332-11.668s10.024,3.4,13.668,2.668c7.634-1.535,23-21,23-21
	s20.457-7.471,26-12c3.107-2.541,9.495-12.947,9.495-12.947s12.838-4.053,17.505-17.721c2.007-5.877,7.543-23.672,7.543-23.672
	s12.028-11.709,14.457-16.66c2.807-5.722,5-25,5-25"/>
<path fill="#F15A24" stroke="#000000" stroke-width="2" d="M407.162,28.673c1.271,0.021,3.532,1.679,4.333,2.667
	c0.78,0.962,1.808,3.436,1.667,4.667c-0.158,1.378-1.783,4.002-3,4.667c-1.171,0.639-4.098,0.501-5.334,0
	c-0.753-0.305-2.017-1.512-2.333-2.259c-0.69-1.628-0.861-5.53,0-7.075C403.149,30.166,405.818,28.651,407.162,28.673z"/>
<circle cx="407.543" cy="34.888" r="2"/>
<path fill="none" stroke="#000000" stroke-width="3" d="M-210.668,382.336"/>
<path fill="#4D4D4D" d="M74.5,182.505"/>
<path fill="#4D4D4D" d="M199.083,247.024c3.097-2.723,14.584-13.359,14.584-13.359s5.229,8.245,7,9.109
	c3.976,1.94,18.333,0.564,18.333,0.564s6.529,11.953,10.667,13.667c3.311,1.371,14.333,0,14.333,0s5.468,8.342,9.334,9.666
	c4.207,1.441,18.333-1,18.333-1s8.239,13.467,12.667,16c6.279,3.596,28.666,4,28.666,4l-32.666,19.334
	c0,0-17.632-0.604-22.667-3.334c-3.321-1.801-10-11.334-10-11.334s-14.427,4.014-18.667,2c-4.134-1.961-10-11.332-10-11.332
	s-16.808,2.824-22,0.666c-3.117-1.295-7.333-11.336-7.333-11.336s-11.878,1.66-15.333,0c-2.885-1.387-6-9.998-6-9.998
	S195.219,250.422,199.083,247.024z"/>
<g>
	<path fill="#4D4D4D" d="M283.582,217.098c-0.001,0-0.001,0-0.002,0c-4.536,0-12.883-12.225-15.333-14.132l3.686,1.265
		c4.697,3.654,10.141,6.863,11.648,6.867c4.617,0.001,17.495-8.401,25.165-14.367l1.464-1.139l1.674,0.801
		c6.112,2.926,17.187,7.485,20.907,7.212c4.923-0.344,18.336-8.16,25.635-13.006l1.504-1l1.588,0.863
		c7.275,3.953,20.466,10.14,25.292,10.14c0.06,0,0.117-0.001,0.175-0.003c3.919-0.13,14.933-6.225,20.954-10.036l3.209-0.93
		c-2.831,1.792-17.292,16.741-23.964,16.963c-0.101,0.003-0.203,0.005-0.308,0.005c-6.946,0-21.562-13.353-26.637-16.02
		c-5.028,3.245-19.947,18.515-27.03,19.009c-5.564,0.375-17.37-10.753-22.244-13.001
		C305.607,200.639,291.05,217.098,283.582,217.098L283.582,217.098z"/>
</g>
<linearGradient id="SVGID_5_" gradientUnits="userSpaceOnUse" x1="281.6182" y1="392.3721" x2="298.9089" y2="520.1071">
	<stop  offset="0.3374" style="stop-color:#4D4D4D"/>
	<stop  offset="0.3776" style="stop-color:#564C4F"/>
	<stop  offset="0.4419" style="stop-color:#6D4856"/>
	<stop  offset="0.5217" style="stop-color:#934260"/>
	<stop  offset="0.6012" style="stop-color:#BF3B6C"/>
</linearGradient>
<path fill="url(#SVGID_5_)" stroke="#000000" stroke-width="3" d="M283.581,419.189c-3.418-0.613-13.233-4.221-13.233-4.221
	l7.986,39.701l8.988,37.336l-41.322,8l-17,6h17c0,0,33.659-4.193,47.334-4.334c16.575-0.168,57,4.334,57,4.334H365l-14.666-6
	l-52.459-8.129l-6.874-36.871c0,0,2.483-8.869,4.829-18.037c1.071-4.188,2.629-17.092,2.629-17.092S287.246,419.848,283.581,419.189
	z"/>
<g>
	<linearGradient id="SVGID_6_" gradientUnits="userSpaceOnUse" x1="270.7773" y1="386.1572" x2="288.9441" y2="520.3639">
		<stop  offset="0.3374" style="stop-color:#4D4D4D"/>
		<stop  offset="0.3776" style="stop-color:#564C4F"/>
		<stop  offset="0.4419" style="stop-color:#6D4856"/>
		<stop  offset="0.5217" style="stop-color:#934260"/>
		<stop  offset="0.6012" style="stop-color:#BF3B6C"/>
	</linearGradient>
	<path fill="url(#SVGID_6_)" d="M273.918,416.242c-3.418-0.613-15.216-6.311-15.216-6.311l9.632,44.738l8.988,37.336l-41.322,8
		l-17,6h17c0,0,33.659-4.193,47.334-4.334c16.575-0.168,57,4.334,57,4.334H355l-14.666-6l-52.459-8.129l-6.874-36.871
		c0,0,2.483-8.869,4.829-18.037c1.071-4.188,2.629-17.092,2.629-17.092S277.583,416.898,273.918,416.242z"/>
	<linearGradient id="SVGID_7_" gradientUnits="userSpaceOnUse" x1="358.4346" y1="457.8711" x2="223.0042" y2="458.1294">
		<stop  offset="0.1166" style="stop-color:#C7B299"/>
		<stop  offset="0.1397" style="stop-color:#C2A994;stop-opacity:0.8426"/>
		<stop  offset="0.1768" style="stop-color:#B39287;stop-opacity:0.5909"/>
		<stop  offset="0.2228" style="stop-color:#9B6C71;stop-opacity:0.2785"/>
		<stop  offset="0.2638" style="stop-color:#82455B;stop-opacity:0"/>
		<stop  offset="0.7485" style="stop-color:#9E4063;stop-opacity:0"/>
		<stop  offset="0.9018" style="stop-color:#C7B299"/>
	</linearGradient>
	<path fill="url(#SVGID_7_)" d="M273.918,416.242c-3.418-0.613-15.216-6.311-15.216-6.311l9.632,44.738l8.988,37.336l-41.322,8
		l-17,6h17c0,0,33.659-4.193,47.334-4.334c16.575-0.168,57,4.334,57,4.334H355l-14.666-6l-52.459-8.129l-6.874-36.871
		c0,0,2.483-8.869,4.829-18.037c1.071-4.188,2.629-17.092,2.629-17.092S277.583,416.898,273.918,416.242z"/>
	<path fill="none" stroke="#000000" stroke-width="3" d="M273.918,416.242c-3.418-0.613-15.216-6.311-15.216-6.311l9.632,44.738
		l8.988,37.336l-41.322,8l-17,6h17c0,0,33.659-4.193,47.334-4.334c16.575-0.168,57,4.334,57,4.334H355l-14.666-6l-52.459-8.129
		l-6.874-36.871c0,0,2.483-8.869,4.829-18.037c1.071-4.188,2.629-17.092,2.629-17.092S277.583,416.898,273.918,416.242z"/>
</g>
</svg>
